<?xml version="1.0" standalone="no"?>
<!DOCTYPE svg PUBLIC "-//W3C//DTD SVG 20010904//EN"
 "http://www.w3.org/TR/2001/REC-SVG-20010904/DTD/svg10.dtd">
<svg version="1.0" xmlns="http://www.w3.org/2000/svg"
 width="3500.000000pt" height="3000.000000pt" viewBox="0 0 2000.000000 1500.000000"
 preserveAspectRatio="xMidYMid meet">

<g transform="translate(0.000000,1500.000000) scale(0.100000,-0.100000)"
fill="#915EFF" stroke="none">
<path d="M5160 11405 l0 -775 260 0 260 0 0 515 0 515 4160 0 4160 0 0 -4155
0 -4155 -4160 0 -4160 0 0 515 0 515 -260 0 -260 0 0 -775 0 -775 4680 0 4680
0 0 4675 0 4675 -4680 0 -4680 0 0 -775z"/>
<path d="M8255 10378 c-94 -51 -150 -179 -194 -438 -27 -160 -35 -340 -22
-502 26 -322 93 -511 188 -537 25 -7 313 -11 851 -11 446 0 812 -2 812 -5 0
-3 -431 -675 -958 -1493 -528 -818 -964 -1497 -971 -1510 -19 -36 -25 -145
-11 -214 42 -219 320 -915 405 -1016 l27 -32 1639 0 c1822 0 1664 -6 1734 71
173 192 241 861 130 1278 -38 142 -91 232 -159 269 -28 16 -99 17 -813 22
l-782 5 965 1465 966 1465 -12 105 c-18 163 -59 374 -97 500 -62 206 -129 336
-227 439 -70 72 -122 106 -207 132 -58 18 -121 19 -1652 19 -1142 -1 -1598 -4
-1612 -12z"/>
</g>
</svg>
